<svg width="35" height="35" viewBox="0 0 35 35" fill="none" xmlns="http://www.w3.org/2000/svg">
<path d="M11.107 29.1667C10.4537 29.1667 9.89755 28.9372 9.43866 28.4783C8.97977 28.0195 8.75033 27.4638 8.75033 26.8115V8.75001H7.29199V7.29168H13.1253V6.16876H21.8753V7.29168H27.7087V8.75001H26.2503V26.8115C26.2503 27.4823 26.0257 28.0428 25.5766 28.4929C25.1274 28.9431 24.5664 29.1677 23.8937 29.1667H11.107ZM24.792 8.75001H10.2087V26.8115C10.2087 27.073 10.2928 27.2879 10.461 27.4561C10.6291 27.6242 10.8445 27.7083 11.107 27.7083H23.8951C24.1187 27.7083 24.3244 27.615 24.512 27.4283C24.6996 27.2417 24.793 27.0356 24.792 26.81V8.75001ZM14.3037 24.7917H15.762V11.6667H14.3037V24.7917ZM19.2387 24.7917H20.697V11.6667H19.2387V24.7917Z" fill="black"/>
</svg>
