<svg width="34" height="34" viewBox="0 0 34 34" fill="none" xmlns="http://www.w3.org/2000/svg">
<circle cx="17" cy="17" r="15" stroke="white" stroke-width="4"/>
<circle cx="17" cy="17" r="12.1429" fill="white"/>
<circle cx="8.09512" cy="15.381" r="1.11905" fill="white"/>
<circle cx="8.09512" cy="15.381" r="1.11905" fill="#FF5B00"/>
<circle cx="8.09512" cy="15.381" r="1.11905" stroke="#FF5B00"/>
<circle cx="14.5714" cy="12.143" r="1.11905" fill="white"/>
<circle cx="14.5714" cy="12.143" r="1.11905" fill="#FF5B00"/>
<circle cx="14.5714" cy="12.143" r="1.11905" stroke="#FF5B00"/>
<circle cx="21.8571" cy="16.9999" r="1.11905" fill="white"/>
<circle cx="21.8571" cy="16.9999" r="1.11905" fill="#FF5B00"/>
<circle cx="21.8571" cy="16.9999" r="1.11905" stroke="#FF5B00"/>
<circle cx="25.0951" cy="11.3334" r="1.11905" fill="white"/>
<circle cx="25.0951" cy="11.3334" r="1.11905" fill="#FF5B00"/>
<circle cx="25.0951" cy="11.3334" r="1.11905" stroke="#FF5B00"/>
<circle cx="21.8571" cy="25.0951" r="1.11905" fill="white"/>
<circle cx="21.8571" cy="25.0951" r="1.11905" fill="#FF5B00"/>
<circle cx="21.8571" cy="25.0951" r="1.11905" stroke="#FF5B00"/>
<circle cx="11.3334" cy="22.6667" r="1.11905" fill="white"/>
<circle cx="11.3334" cy="22.6667" r="1.11905" fill="#FF5B00"/>
<circle cx="11.3334" cy="22.6667" r="1.11905" stroke="#FF5B00"/>
<circle cx="16.9999" cy="21.0475" r="1.11905" fill="white"/>
<circle cx="16.9999" cy="21.0475" r="1.11905" fill="#FF5B00"/>
<circle cx="16.9999" cy="21.0475" r="1.11905" stroke="#FF5B00"/>
<circle cx="19.4286" cy="8.90469" r="1.11905" fill="white"/>
<circle cx="19.4286" cy="8.90469" r="1.11905" fill="#FF5B00"/>
<circle cx="19.4286" cy="8.90469" r="1.11905" stroke="#FF5B00"/>
<rect x="23.1667" y="20.5154" width="0.607143" height="2.63095" rx="0.303571" transform="rotate(-49.9551 23.1667 20.5154)" fill="white" stroke="#FF5B00" stroke-width="0.607143"/>
<rect x="27.5029" y="16.3559" width="0.607143" height="2.63095" rx="0.303571" transform="rotate(145.653 27.5029 16.3559)" fill="white" stroke="#FF5B00" stroke-width="0.607143"/>
<rect x="18.3237" y="13.3438" width="0.607143" height="2.63095" rx="0.303571" transform="rotate(20.7564 18.3237 13.3438)" fill="white" stroke="#FF5B00" stroke-width="0.607143"/>
<rect x="13.446" y="17.3673" width="0.607143" height="2.63095" rx="0.303571" transform="rotate(76.1782 13.446 17.3673)" fill="white" stroke="#FF5B00" stroke-width="0.607143"/>
<rect x="14.3025" y="26.7721" width="0.607143" height="2.63095" rx="0.303571" transform="rotate(-105.836 14.3025 26.7721)" fill="white" stroke="#FF5B00" stroke-width="0.607143"/>
<rect x="13.4322" y="7.86467" width="0.607143" height="2.63095" rx="0.303571" transform="rotate(46.7173 13.4322 7.86467)" fill="white" stroke="#FF5B00" stroke-width="0.607143"/>
</svg>
