<svg width="51" height="59" viewBox="0 0 51 59" fill="none" xmlns="http://www.w3.org/2000/svg">
<path d="M11.232 48C10.496 48 9.888 47.776 9.408 47.328C8.928 46.848 8.688 46.256 8.688 45.552V19.824L9.312 20.688L4.848 23.808C4.464 24.128 4 24.288 3.456 24.288C2.816 24.288 2.24 24.048 1.728 23.568C1.248 23.056 1.008 22.464 1.008 21.792C1.008 20.96 1.424 20.272 2.256 19.728L9.552 14.88C9.84 14.688 10.144 14.56 10.464 14.496C10.816 14.432 11.136 14.4 11.424 14.4C12.16 14.4 12.752 14.64 13.2 15.12C13.648 15.568 13.872 16.144 13.872 16.848V45.552C13.872 46.256 13.616 46.848 13.104 47.328C12.624 47.776 12 48 11.232 48Z" fill="#FF5B00"/>
<circle cx="34" cy="31" r="15" stroke="#FF5B00" stroke-width="4"/>
<circle cx="33.9998" cy="31" r="12.1429" fill="#FF5B00"/>
<circle cx="25.0951" cy="29.381" r="1.61905" fill="white"/>
<circle cx="25.0951" cy="29.381" r="1.61905" fill="white"/>
<circle cx="31.5712" cy="26.1429" r="1.61905" fill="white"/>
<circle cx="31.5712" cy="26.1429" r="1.61905" fill="white"/>
<circle cx="38.8573" cy="31" r="1.61905" fill="white"/>
<circle cx="38.8573" cy="31" r="1.61905" fill="white"/>
<circle cx="42.0951" cy="25.3333" r="1.61905" fill="white"/>
<circle cx="42.0951" cy="25.3333" r="1.61905" fill="white"/>
<circle cx="38.8573" cy="39.0952" r="1.61905" fill="white"/>
<circle cx="38.8573" cy="39.0952" r="1.61905" fill="white"/>
<circle cx="28.3334" cy="36.6667" r="1.61905" fill="white"/>
<circle cx="28.3334" cy="36.6667" r="1.61905" fill="white"/>
<circle cx="33.9999" cy="35.0476" r="1.61905" fill="white"/>
<circle cx="33.9999" cy="35.0476" r="1.61905" fill="white"/>
<circle cx="36.4286" cy="22.9048" r="1.61905" fill="white"/>
<circle cx="36.4286" cy="22.9048" r="1.61905" fill="white"/>
<rect x="39.7388" y="34.5524" width="1.21429" height="3.2381" rx="0.607143" transform="rotate(-49.9551 39.7388 34.5524)" fill="white"/>
<rect x="44.9248" y="30.4354" width="1.21429" height="3.2381" rx="0.607143" transform="rotate(145.653 44.9248 30.4354)" fill="white"/>
<rect x="35.1475" y="26.9524" width="1.21429" height="3.2381" rx="0.607143" transform="rotate(20.7564 35.1475 26.9524)" fill="white"/>
<rect x="30.668" y="31" width="1.21429" height="3.2381" rx="0.607143" transform="rotate(76.1782 30.668 31)" fill="white"/>
<rect x="31.0933" y="41.1471" width="1.21429" height="3.2381" rx="0.607143" transform="rotate(-105.836 31.0933 41.1471)" fill="white"/>
<rect x="30.4448" y="21.4357" width="1.21429" height="3.2381" rx="0.607143" transform="rotate(46.7173 30.4448 21.4357)" fill="white"/>
</svg>
