<svg width="246" height="60" viewBox="0 0 246 60" fill="none" xmlns="http://www.w3.org/2000/svg">
<path d="M66.664 48C65.7867 48 65.066 47.7337 64.502 47.201C63.938 46.637 63.656 45.9477 63.656 45.133V17.873H69.766V45.133C69.766 45.9477 69.4683 46.637 68.873 47.201C68.309 47.7337 67.5727 48 66.664 48ZM56.277 20.505C55.4623 20.505 54.773 20.2543 54.209 19.753C53.6763 19.2517 53.41 18.5937 53.41 17.779C53.41 16.9643 53.6763 16.322 54.209 15.852C54.773 15.3507 55.4623 15.1 56.277 15.1H77.145C77.9597 15.1 78.6333 15.3507 79.166 15.852C79.73 16.3533 80.012 17.0113 80.012 17.826C80.012 18.6407 79.73 19.2987 79.166 19.8C78.6333 20.27 77.9597 20.505 77.145 20.505H56.277ZM90.6744 48.47C88.0111 48.47 85.6924 47.9217 83.7184 46.825C81.7757 45.697 80.2717 44.1773 79.2064 42.266C78.1724 40.3547 77.6554 38.1927 77.6554 35.78C77.6554 32.96 78.2194 30.563 79.3474 28.589C80.5067 26.5837 82.0107 25.0483 83.8594 23.983C85.7081 22.9177 87.6664 22.385 89.7344 22.385C91.3324 22.385 92.8364 22.714 94.2464 23.372C95.6877 24.03 96.9567 24.9387 98.0534 26.098C99.1501 27.226 100.012 28.542 100.638 30.046C101.296 31.55 101.625 33.148 101.625 34.84C101.594 35.592 101.296 36.203 100.732 36.673C100.168 37.143 99.5104 37.378 98.7584 37.378H80.8044L79.3944 32.678H96.6434L95.6094 33.618V32.349C95.5467 31.4403 95.2177 30.6257 94.6224 29.905C94.0584 29.1843 93.3377 28.6203 92.4604 28.213C91.6144 27.7743 90.7057 27.555 89.7344 27.555C88.7944 27.555 87.9171 27.6803 87.1024 27.931C86.2877 28.1817 85.5827 28.6047 84.9874 29.2C84.3921 29.7953 83.9221 30.5943 83.5774 31.597C83.2327 32.5997 83.0604 33.8687 83.0604 35.404C83.0604 37.096 83.4051 38.5373 84.0944 39.728C84.8151 40.8873 85.7237 41.7803 86.8204 42.407C87.9484 43.0023 89.1391 43.3 90.3924 43.3C91.5517 43.3 92.4761 43.206 93.1654 43.018C93.8547 42.83 94.4031 42.6107 94.8104 42.36C95.2491 42.078 95.6407 41.843 95.9854 41.655C96.5494 41.373 97.0821 41.232 97.5834 41.232C98.2727 41.232 98.8367 41.467 99.2754 41.937C99.7454 42.407 99.9804 42.9553 99.9804 43.582C99.9804 44.428 99.5417 45.1957 98.6644 45.885C97.8497 46.5743 96.7061 47.1853 95.2334 47.718C93.7607 48.2193 92.2411 48.47 90.6744 48.47ZM119.995 22.385C122.314 22.385 124.068 22.8707 125.259 23.842C126.481 24.8133 127.311 26.1137 127.75 27.743C128.22 29.341 128.455 31.127 128.455 33.101V45.133C128.455 45.9477 128.189 46.637 127.656 47.201C127.123 47.7337 126.45 48 125.635 48C124.82 48 124.147 47.7337 123.614 47.201C123.081 46.637 122.815 45.9477 122.815 45.133V33.101C122.815 32.067 122.674 31.1427 122.392 30.328C122.141 29.482 121.671 28.8083 120.982 28.307C120.293 27.8057 119.306 27.555 118.021 27.555C116.768 27.555 115.702 27.8057 114.825 28.307C113.979 28.8083 113.321 29.482 112.851 30.328C112.412 31.1427 112.193 32.067 112.193 33.101V45.133C112.193 45.9477 111.927 46.637 111.394 47.201C110.861 47.7337 110.188 48 109.373 48C108.558 48 107.885 47.7337 107.352 47.201C106.819 46.637 106.553 45.9477 106.553 45.133V25.722C106.553 24.9073 106.819 24.2337 107.352 23.701C107.885 23.137 108.558 22.855 109.373 22.855C110.188 22.855 110.861 23.137 111.394 23.701C111.927 24.2337 112.193 24.9073 112.193 25.722V27.743L111.488 27.602C111.77 27.0693 112.177 26.5053 112.71 25.91C113.243 25.2833 113.869 24.7037 114.59 24.171C115.311 23.6383 116.125 23.2153 117.034 22.902C117.943 22.5573 118.93 22.385 119.995 22.385ZM148.604 15.1C150.233 15.1 151.753 15.57 153.163 16.51C154.604 17.45 155.764 18.719 156.641 20.317C157.518 21.915 157.957 23.701 157.957 25.675C157.957 27.6177 157.518 29.388 156.641 30.986C155.764 32.584 154.604 33.8687 153.163 34.84C151.753 35.78 150.233 36.25 148.604 36.25H139.956L140.426 35.404V45.133C140.426 45.9477 140.175 46.637 139.674 47.201C139.173 47.7337 138.515 48 137.7 48C136.917 48 136.274 47.7337 135.773 47.201C135.272 46.637 135.021 45.9477 135.021 45.133V17.967C135.021 17.1523 135.287 16.4787 135.82 15.946C136.384 15.382 137.073 15.1 137.888 15.1H148.604ZM148.604 30.892C149.199 30.892 149.779 30.6413 150.343 30.14C150.907 29.6387 151.377 28.9963 151.753 28.213C152.129 27.3983 152.317 26.5523 152.317 25.675C152.317 24.7663 152.129 23.9203 151.753 23.137C151.377 22.3537 150.907 21.727 150.343 21.257C149.779 20.7557 149.199 20.505 148.604 20.505H139.862L140.426 19.659V31.644L139.909 30.892H148.604ZM168.181 45.133C168.181 45.9477 167.915 46.637 167.382 47.201C166.85 47.7337 166.176 48 165.361 48C164.547 48 163.873 47.7337 163.34 47.201C162.808 46.637 162.541 45.9477 162.541 45.133V25.722C162.541 24.9073 162.808 24.2337 163.34 23.701C163.873 23.137 164.547 22.855 165.361 22.855C166.176 22.855 166.85 23.137 167.382 23.701C167.915 24.2337 168.181 24.9073 168.181 25.722V45.133ZM165.314 19.8C164.249 19.8 163.497 19.6277 163.058 19.283C162.62 18.9383 162.4 18.3273 162.4 17.45V16.557C162.4 15.6483 162.635 15.0373 163.105 14.724C163.607 14.3793 164.359 14.207 165.361 14.207C166.458 14.207 167.226 14.3793 167.664 14.724C168.103 15.0687 168.322 15.6797 168.322 16.557V17.45C168.322 18.3587 168.087 18.9853 167.617 19.33C167.147 19.6433 166.38 19.8 165.314 19.8ZM190.005 42.83C190.757 42.83 191.384 43.0807 191.885 43.582C192.386 44.052 192.637 44.663 192.637 45.415C192.637 46.1357 192.386 46.7467 191.885 47.248C191.384 47.7493 190.757 48 190.005 48H174.871C174.088 48 173.461 47.718 172.991 47.154C172.521 46.59 172.302 46.026 172.333 45.462C172.364 44.992 172.427 44.5847 172.521 44.24C172.615 43.864 172.85 43.441 173.226 42.971L184.929 27.837L184.835 28.495H175.294C174.542 28.495 173.915 28.2443 173.414 27.743C172.913 27.2417 172.662 26.615 172.662 25.863C172.662 25.1423 172.913 24.547 173.414 24.077C173.915 23.5757 174.542 23.325 175.294 23.325H189.77C190.491 23.325 191.102 23.5913 191.603 24.124C192.104 24.6567 192.324 25.3303 192.261 26.145C192.23 26.4583 192.167 26.7717 192.073 27.085C192.01 27.3983 191.807 27.7743 191.462 28.213L179.947 43.112V42.83H190.005ZM212.77 42.83C213.522 42.83 214.149 43.0807 214.65 43.582C215.152 44.052 215.402 44.663 215.402 45.415C215.402 46.1357 215.152 46.7467 214.65 47.248C214.149 47.7493 213.522 48 212.77 48H197.636C196.853 48 196.226 47.718 195.756 47.154C195.286 46.59 195.067 46.026 195.098 45.462C195.13 44.992 195.192 44.5847 195.286 44.24C195.38 43.864 195.615 43.441 195.991 42.971L207.694 27.837L207.6 28.495H198.059C197.307 28.495 196.681 28.2443 196.179 27.743C195.678 27.2417 195.427 26.615 195.427 25.863C195.427 25.1423 195.678 24.547 196.179 24.077C196.681 23.5757 197.307 23.325 198.059 23.325H212.535C213.256 23.325 213.867 23.5913 214.368 24.124C214.87 24.6567 215.089 25.3303 215.026 26.145C214.995 26.4583 214.932 26.7717 214.838 27.085C214.776 27.3983 214.572 27.7743 214.227 28.213L202.712 43.112V42.83H212.77ZM240.095 22.385C240.91 22.385 241.583 22.6513 242.116 23.184C242.649 23.7167 242.915 24.406 242.915 25.252V45.133C242.915 45.9477 242.649 46.637 242.116 47.201C241.583 47.7337 240.91 48 240.095 48C239.28 48 238.607 47.7337 238.074 47.201C237.541 46.637 237.275 45.9477 237.275 45.133V42.83L238.309 43.253C238.309 43.6603 238.09 44.1617 237.651 44.757C237.212 45.321 236.617 45.885 235.865 46.449C235.113 47.013 234.22 47.4987 233.186 47.906C232.183 48.282 231.087 48.47 229.896 48.47C227.734 48.47 225.776 47.9217 224.021 46.825C222.266 45.697 220.872 44.1617 219.838 42.219C218.835 40.245 218.334 37.989 218.334 35.451C218.334 32.8817 218.835 30.6257 219.838 28.683C220.872 26.709 222.251 25.1737 223.974 24.077C225.697 22.949 227.609 22.385 229.708 22.385C231.055 22.385 232.293 22.5887 233.421 22.996C234.549 23.4033 235.52 23.9203 236.335 24.547C237.181 25.1737 237.823 25.816 238.262 26.474C238.732 27.1007 238.967 27.6333 238.967 28.072L237.275 28.683V25.252C237.275 24.4373 237.541 23.7637 238.074 23.231C238.607 22.667 239.28 22.385 240.095 22.385ZM230.601 43.3C231.98 43.3 233.186 42.9553 234.22 42.266C235.254 41.5767 236.053 40.6367 236.617 39.446C237.212 38.2553 237.51 36.9237 237.51 35.451C237.51 33.947 237.212 32.5997 236.617 31.409C236.053 30.2183 235.254 29.2783 234.22 28.589C233.186 27.8997 231.98 27.555 230.601 27.555C229.254 27.555 228.063 27.8997 227.029 28.589C225.995 29.2783 225.18 30.2183 224.585 31.409C224.021 32.5997 223.739 33.947 223.739 35.451C223.739 36.9237 224.021 38.2553 224.585 39.446C225.18 40.6367 225.995 41.5767 227.029 42.266C228.063 42.9553 229.254 43.3 230.601 43.3Z" fill="#FF5B00"/>
<path d="M11.232 48C10.496 48 9.888 47.776 9.408 47.328C8.928 46.848 8.688 46.256 8.688 45.552V19.824L9.312 20.688L4.848 23.808C4.464 24.128 4 24.288 3.456 24.288C2.816 24.288 2.24 24.048 1.728 23.568C1.248 23.056 1.008 22.464 1.008 21.792C1.008 20.96 1.424 20.272 2.256 19.728L9.552 14.88C9.84 14.688 10.144 14.56 10.464 14.496C10.816 14.432 11.136 14.4 11.424 14.4C12.16 14.4 12.752 14.64 13.2 15.12C13.648 15.568 13.872 16.144 13.872 16.848V45.552C13.872 46.256 13.616 46.848 13.104 47.328C12.624 47.776 12 48 11.232 48Z" fill="#FF5B00"/>
<circle cx="34" cy="31" r="15" stroke="#FF5B00" stroke-width="4"/>
<path fill-rule="evenodd" clip-rule="evenodd" d="M46.1426 31C46.1426 37.7064 40.7061 43.1429 33.9998 43.1429C27.2935 43.1429 21.8569 37.7064 21.8569 31C21.8569 24.2937 27.2935 18.8572 33.9998 18.8572C40.7061 18.8572 46.1426 24.2937 46.1426 31ZM26.7142 29.381C26.7142 30.2752 25.9893 31.0001 25.0951 31.0001C24.2009 31.0001 23.4761 30.2752 23.4761 29.381C23.4761 28.4868 24.2009 27.762 25.0951 27.762C25.9893 27.762 26.7142 28.4868 26.7142 29.381ZM31.5712 27.7619C32.4654 27.7619 33.1902 27.037 33.1902 26.1429C33.1902 25.2487 32.4654 24.5238 31.5712 24.5238C30.677 24.5238 29.9521 25.2487 29.9521 26.1429C29.9521 27.037 30.677 27.7619 31.5712 27.7619ZM40.4764 31C40.4764 31.8942 39.7515 32.6191 38.8573 32.6191C37.9632 32.6191 37.2383 31.8942 37.2383 31C37.2383 30.1059 37.9632 29.381 38.8573 29.381C39.7515 29.381 40.4764 30.1059 40.4764 31ZM42.0951 26.9523C42.9893 26.9523 43.7142 26.2275 43.7142 25.3333C43.7142 24.4391 42.9893 23.7142 42.0951 23.7142C41.2009 23.7142 40.4761 24.4391 40.4761 25.3333C40.4761 26.2275 41.2009 26.9523 42.0951 26.9523ZM40.4764 39.0952C40.4764 39.9894 39.7515 40.7143 38.8573 40.7143C37.9632 40.7143 37.2383 39.9894 37.2383 39.0952C37.2383 38.2011 37.9632 37.4762 38.8573 37.4762C39.7515 37.4762 40.4764 38.2011 40.4764 39.0952ZM28.3334 38.2857C29.2276 38.2857 29.9525 37.5608 29.9525 36.6667C29.9525 35.7725 29.2276 35.0476 28.3334 35.0476C27.4392 35.0476 26.7144 35.7725 26.7144 36.6667C26.7144 37.5608 27.4392 38.2857 28.3334 38.2857ZM35.619 35.0476C35.619 35.9418 34.8941 36.6667 33.9999 36.6667C33.1057 36.6667 32.3809 35.9418 32.3809 35.0476C32.3809 34.1535 33.1057 33.4286 33.9999 33.4286C34.8941 33.4286 35.619 34.1535 35.619 35.0476ZM36.4286 24.5239C37.3228 24.5239 38.0477 23.799 38.0477 22.9048C38.0477 22.0106 37.3228 21.2858 36.4286 21.2858C35.5344 21.2858 34.8096 22.0106 34.8096 22.9048C34.8096 23.799 35.5344 24.5239 36.4286 24.5239ZM40.2036 34.943C39.9469 34.7273 39.9137 34.3443 40.1294 34.0876C40.3451 33.8309 40.7281 33.7977 40.9848 34.0134L42.5341 35.3155C42.7908 35.5312 42.824 35.9142 42.6083 36.1709C42.3926 36.4276 42.0096 36.4608 41.7529 36.2451L40.2036 34.943ZM44.4235 30.778C44.7004 30.5888 44.7714 30.211 44.5823 29.9341L43.4404 28.2632C43.2512 27.9864 42.8734 27.9153 42.5966 28.1045C42.3197 28.2937 42.2487 28.6715 42.4379 28.9483L43.5797 30.6192C43.7689 30.8961 44.1467 30.9672 44.4235 30.778ZM34.9323 27.5201C35.0511 27.2066 35.4016 27.0487 35.7152 27.1676C36.0287 27.2864 36.1866 27.6369 36.0678 27.9505L35.3505 29.8429C35.2317 30.1565 34.8812 30.3143 34.5676 30.1955C34.2541 30.0767 34.0962 29.7261 34.2151 29.4126L34.9323 27.5201ZM30.813 31.5896C30.7329 31.264 30.404 31.0649 30.0784 31.145L28.1132 31.6285C27.7876 31.7086 27.5886 32.0375 27.6687 32.3632C27.7488 32.6888 28.0777 32.8878 28.4033 32.8077L30.3685 32.3242C30.6941 32.2441 30.8931 31.9152 30.813 31.5896ZM31.6774 40.9814C31.3548 41.0729 31.0191 40.8856 30.9276 40.563C30.8361 40.2404 31.0234 39.9047 31.346 39.8132L33.293 39.261C33.6156 39.1695 33.9513 39.3568 34.0428 39.6794C34.1343 40.002 33.947 40.3377 33.6244 40.4292L31.6774 40.9814ZM30.8611 21.8777C30.6312 21.6336 30.2469 21.622 30.0028 21.8519L28.5295 23.2394C28.2854 23.4693 28.2739 23.8536 28.5038 24.0977C28.7337 24.3418 29.118 24.3533 29.3621 24.1234L30.8354 22.7359C31.0795 22.506 31.091 22.1218 30.8611 21.8777Z" fill="#FF5B00"/>
</svg>
